<svg width="64" height="64" viewBox="0 0 64 64" fill="none" xmlns="http://www.w3.org/2000/svg">
  <defs>
    <linearGradient id="bg" x1="10" y1="8" x2="54" y2="58" gradientUnits="userSpaceOnUse">
      <stop offset="0" stop-color="#163A63" />
      <stop offset="1" stop-color="#0B203A" />
    </linearGradient>
    <linearGradient id="accent" x1="32" y1="18" x2="32" y2="47" gradientUnits="userSpaceOnUse">
      <stop offset="0" stop-color="#FACC15" />
      <stop offset="1" stop-color="#F97316" />
    </linearGradient>
  </defs>

  <rect x="4" y="4" width="56" height="56" rx="16" fill="url(#bg)" />
  <path d="M18 16C12.4 20.2 10 28.1 11.9 34.8" stroke="#FFFFFF" stroke-opacity="0.2" stroke-width="2.5" stroke-linecap="round" />
  <path d="M52.1 34.8C54 28.1 51.6 20.2 46 16" stroke="#FFFFFF" stroke-opacity="0.2" stroke-width="2.5" stroke-linecap="round" />

  <path d="M23 19.5H41C42.4 19.5 43.5 20.6 43.5 22C43.5 23.4 42.4 24.5 41 24.5H35V38.5" stroke="#F8FAFC" stroke-width="5" stroke-linecap="round" stroke-linejoin="round" />
  <path d="M32 18V38.5" stroke="url(#accent)" stroke-width="4.5" stroke-linecap="round" />

  <path d="M18 40.5C22.1 37.7 26.7 36.3 32 36.3C37.3 36.3 41.9 37.7 46 40.5V47.5C41.9 44.7 37.3 43.3 32 43.3C26.7 43.3 22.1 44.7 18 47.5V40.5Z" fill="#F8FAFC" />
  <path d="M32 36.3V43.3" stroke="#CBD5E1" stroke-width="1.5" stroke-linecap="round" />

  <circle cx="16" cy="33" r="3" fill="#FACC15" />
  <circle cx="48" cy="33" r="3" fill="#F97316" />
  <circle cx="32" cy="50" r="2.5" fill="#F8FAFC" fill-opacity="0.9" />
</svg>
